<?xml version="1.0" encoding="UTF-8"?>
<svg width="151px" height="35px" viewBox="0 0 151 35" version="1.1" xmlns="http://www.w3.org/2000/svg" xmlns:xlink="http://www.w3.org/1999/xlink">
    <!-- Generator: Sketch 52.2 (67145) - http://www.bohemiancoding.com/sketch -->
    <title>Available in store Copy 2</title>
    <desc>Created with Sketch.</desc>
    <g id="Available-in-store-Copy-2" stroke="none" stroke-width="1" fill="none" fill-rule="evenodd">
        <path d="M147,34.8999819 L147,35 L146.906353,34.9180585 C146.612413,34.971881 146.30949,35 146,35 L5,35 C2.23857625,35 3.38176876e-16,32.7614237 0,30 L0,5 C-3.38176876e-16,2.23857625 2.23857625,5.07265313e-16 5,0 L146,0 C146.30949,-5.6852425e-17 146.612413,0.028118979 146.906353,0.081941531 L147,0 L147,0.100018116 L147,34.8999819 Z M151,30 L151,5 L151,30 Z M146.906353,0.081941531 L127,17.5 L146.906353,34.9180585 C146.937671,34.9123238 146.968888,34.9062973 147,34.8999819 L147,0.100018116 C146.968888,0.0937027343 146.937671,0.0876762323 146.906353,0.081941531 Z" id="Combined-Shape" fill="#1976D2"></path>
        <path d="M16.4453125,22.15625 C15.0650973,22.15625 13.8281305,21.8385448 12.734375,21.203125 L13.25,19.5234375 C13.7395858,19.7942722 14.2721325,20.01302 14.8476562,20.1796875 C15.42318,20.346355 15.9843723,20.4296875 16.53125,20.4296875 C17.2031284,20.4296875 17.7109358,20.2851577 18.0546875,19.9960938 C18.3984392,19.7070298 18.5703125,19.2916694 18.5703125,18.75 C18.5703125,18.0312464 18.0911506,17.5338555 17.1328125,17.2578125 C17.0651038,17.2369791 16.8750016,17.18099 16.5625,17.0898438 C16.2499984,16.9986975 15.9570326,16.9101567 15.6835938,16.8242188 C15.4101549,16.7382808 15.2135423,16.6718752 15.09375,16.625 C13.557284,16.0833306 12.7890625,15.0729241 12.7890625,13.59375 C12.7890625,12.5572865 13.1575484,11.7578153 13.8945312,11.1953125 C14.6315141,10.6328097 15.6093689,10.3515625 16.828125,10.3515625 C18.2083402,10.3515625 19.3984325,10.6354138 20.3984375,11.203125 L19.7578125,12.75 C18.7369741,12.2916644 17.7890669,12.0625 16.9140625,12.0625 C16.283851,12.0625 15.8085954,12.173176 15.4882812,12.3945312 C15.1679671,12.6158865 14.9973959,12.9843724 14.9765625,13.5 C14.9765625,14.1354198 15.2916635,14.5494782 15.921875,14.7421875 C16.0468756,14.7890627 16.3541642,14.8906242 16.84375,15.046875 C17.3333358,15.2031258 17.6510409,15.3046873 17.796875,15.3515625 C18.8437552,15.6953142 19.5924457,16.1223933 20.0429688,16.6328125 C20.4934918,17.1432317 20.71875,17.8541621 20.71875,18.765625 C20.71875,19.8541721 20.3333372,20.6914033 19.5625,21.2773438 C18.7916628,21.8632842 17.7526107,22.15625 16.4453125,22.15625 Z M27.4397321,22.1640625 C26.0595168,22.1640625 24.9853088,21.7669311 24.2170758,20.9726562 C23.4488428,20.1783814 23.0647321,19.0807362 23.0647321,17.6796875 C23.0647321,16.3150973 23.4267076,15.2291707 24.1506696,14.421875 C24.8746315,13.6145793 25.8616008,13.2083334 27.1116071,13.203125 C28.2939047,13.203125 29.2118642,13.572913 29.8655133,14.3125 C30.5191624,15.052087 30.8459821,16.033848 30.8459821,17.2578125 C30.8459821,17.3463546 30.84468,17.4895823 30.8420758,17.6875 C30.8394716,17.8854177 30.8381696,18.0312495 30.8381696,18.125 L25.1272321,18.125 C25.1480655,18.9270873 25.3681154,19.5481749 25.7873883,19.9882812 C26.2066613,20.4283876 26.7834784,20.6484375 27.5178571,20.6484375 C28.4553618,20.6484375 29.3563944,20.4036483 30.2209821,19.9140625 L30.5100446,21.3671875 C29.6506653,21.8984402 28.627238,22.1640625 27.4397321,22.1640625 Z M25.1662946,16.8359375 L28.9162946,16.8359375 C28.9162946,16.1380173 28.757442,15.6015644 28.4397321,15.2265625 C28.1220222,14.8515606 27.6819224,14.6640625 27.1194196,14.6640625 C26.5933753,14.6640625 26.1493693,14.8463523 25.7873883,15.2109375 C25.4254073,15.5755227 25.2183782,16.1171839 25.1662946,16.8359375 Z M37.6216516,22.1640625 C36.2414364,22.1640625 35.1672284,21.7669311 34.3989954,20.9726562 C33.6307624,20.1783814 33.2466516,19.0807362 33.2466516,17.6796875 C33.2466516,16.3150973 33.6086272,15.2291707 34.3325891,14.421875 C35.0565511,13.6145793 36.0435204,13.2083334 37.2935266,13.203125 C38.4758242,13.203125 39.3937838,13.572913 40.0474329,14.3125 C40.701082,15.052087 41.0279016,16.033848 41.0279016,17.2578125 C41.0279016,17.3463546 41.0265996,17.4895823 41.0239954,17.6875 C41.0213912,17.8854177 41.0200891,18.0312495 41.0200891,18.125 L35.3091516,18.125 C35.3299851,18.9270873 35.550035,19.5481749 35.9693079,19.9882812 C36.3885808,20.4283876 36.965398,20.6484375 37.6997766,20.6484375 C38.6372813,20.6484375 39.538314,20.4036483 40.4029016,19.9140625 L40.6919641,21.3671875 C39.8325849,21.8984402 38.8091576,22.1640625 37.6216516,22.1640625 Z M35.3482141,16.8359375 L39.0982141,16.8359375 C39.0982141,16.1380173 38.9393616,15.6015644 38.6216516,15.2265625 C38.3039417,14.8515606 37.863842,14.6640625 37.3013391,14.6640625 C36.7752949,14.6640625 36.3312889,14.8463523 35.9693079,15.2109375 C35.6073269,15.5755227 35.4002977,16.1171839 35.3482141,16.8359375 Z M49.2511158,22 L49.2511158,13.4140625 L51.2979908,13.4140625 L51.2979908,22 L49.2511158,22 Z M49.2511158,12.1640625 L49.2511158,10.4140625 L51.3058033,10.4140625 L51.3058033,12.1640625 L49.2511158,12.1640625 Z M54.5736604,22 L54.5736604,13.4140625 L56.2220979,13.4140625 L56.4486604,14.5 C57.3236647,13.6354123 58.2950092,13.203125 59.3627229,13.203125 C60.3627279,13.203125 61.1114183,13.4908825 61.6088166,14.0664062 C62.1062149,14.64193 62.3549104,15.476557 62.3549104,16.5703125 L62.3549104,22 L60.3002229,22 L60.3002229,16.8203125 C60.2950145,16.1276007 60.1830365,15.6093767 59.9642854,15.265625 C59.7455343,14.9218733 59.352309,14.75 58.7845979,14.75 C58.3418873,14.75 57.9369435,14.8632801 57.5697541,15.0898438 C57.2025648,15.3164074 56.9356404,15.6015608 56.7689729,15.9453125 C56.670014,16.3515645 56.6205354,16.9765583 56.6205354,17.8203125 L56.6205354,22 L54.5736604,22 Z M74.289062,22.15625 C72.9088468,22.15625 71.67188,21.8385448 70.5781245,21.203125 L71.0937495,19.5234375 C71.5833353,19.7942722 72.1158821,20.01302 72.6914058,20.1796875 C73.2669295,20.346355 73.8281218,20.4296875 74.3749995,20.4296875 C75.0468779,20.4296875 75.5546853,20.2851577 75.898437,19.9960938 C76.2421887,19.7070298 76.414062,19.2916694 76.414062,18.75 C76.414062,18.0312464 75.9349001,17.5338555 74.976562,17.2578125 C74.9088534,17.2369791 74.7187511,17.18099 74.4062495,17.0898438 C74.093748,16.9986975 73.8007821,16.9101567 73.5273433,16.8242188 C73.2539044,16.7382808 73.0572918,16.6718752 72.9374995,16.625 C71.4010335,16.0833306 70.632812,15.0729241 70.632812,13.59375 C70.632812,12.5572865 71.0012979,11.7578153 71.7382808,11.1953125 C72.4752636,10.6328097 73.4531184,10.3515625 74.6718745,10.3515625 C76.0520898,10.3515625 77.242182,10.6354138 78.242187,11.203125 L77.601562,12.75 C76.5807236,12.2916644 75.6328164,12.0625 74.757812,12.0625 C74.1276005,12.0625 73.6523449,12.173176 73.3320308,12.3945312 C73.0117167,12.6158865 72.8411455,12.9843724 72.820312,13.5 C72.820312,14.1354198 73.135413,14.5494782 73.7656245,14.7421875 C73.8906251,14.7890627 74.1979137,14.8906242 74.6874995,15.046875 C75.1770853,15.2031258 75.4947905,15.3046873 75.6406245,15.3515625 C76.6875048,15.6953142 77.4361952,16.1223933 77.8867183,16.6328125 C78.3372414,17.1432317 78.5624995,17.8541621 78.5624995,18.765625 C78.5624995,19.8541721 78.1770867,20.6914033 77.4062495,21.2773438 C76.6354123,21.8632842 75.5963602,22.15625 74.289062,22.15625 Z M84.7444191,22.1171875 C84.1610828,22.1171875 83.6754106,22.0481778 83.2873878,21.9101562 C82.8993651,21.7721347 82.5959827,21.554689 82.3772316,21.2578125 C82.1584805,20.960936 82.0035341,20.6106791 81.9123878,20.2070312 C81.8212416,19.8033834 81.7756691,19.3046905 81.7756691,18.7109375 L81.7756691,14.65625 L80.3694191,14.65625 L80.4475441,13.546875 L81.9162941,13.4140625 L82.5725441,11.0859375 L83.8225441,11.078125 L83.8225441,13.4140625 L85.9553566,13.4140625 L85.9553566,14.65625 L83.8225441,14.65625 L83.8225441,18.75 C83.8225441,19.4010449 83.9162932,19.864582 84.1037941,20.140625 C84.291295,20.416668 84.6376457,20.5546875 85.1428566,20.5546875 C85.4397331,20.5546875 85.7574382,20.5286461 86.0959816,20.4765625 L86.1506691,21.9453125 C86.1402524,21.9453125 86.0764509,21.9570311 85.9592628,21.9804688 C85.8420748,22.0039064 85.7300967,22.0247395 85.6233253,22.0429688 C85.516554,22.061198 85.3798366,22.0781249 85.2131691,22.09375 C85.0465016,22.1093751 84.8902532,22.1171875 84.7444191,22.1171875 Z M92.4029012,20.609375 C93.095613,20.609375 93.6164411,20.3567734 93.9654012,19.8515625 C94.3143613,19.3463516 94.4888387,18.6224005 94.4888387,17.6796875 C94.4888387,16.7265577 94.3143613,16.0000025 93.9654012,15.5 C93.6164411,14.9999975 93.0904047,14.75 92.3872762,14.75 C91.6945644,14.75 91.1724342,15.0012996 90.8208699,15.5039062 C90.4693057,16.0065129 90.2935262,16.7343702 90.2935262,17.6875 C90.2935262,18.6250047 90.4706077,19.3463516 90.8247762,19.8515625 C91.1789446,20.3567734 91.704981,20.609375 92.4029012,20.609375 Z M92.3482137,22.1640625 C91.077374,22.1640625 90.077384,21.7526083 89.3482137,20.9296875 C88.6190434,20.1067667 88.2544637,19.0234442 88.2544637,17.6796875 C88.2544637,16.2942639 88.6190434,15.2018269 89.3482137,14.4023438 C90.077384,13.6028606 91.1060195,13.203125 92.4341512,13.203125 C93.7154076,13.203125 94.7193038,13.610673 95.4458699,14.4257812 C96.1724361,15.2408895 96.5357137,16.3255141 96.5357137,17.6796875 C96.5357137,19.049486 96.1685298,20.1393189 95.4341512,20.9492188 C94.6997725,21.7591186 93.671137,22.1640625 92.3482137,22.1640625 Z M99.3582582,22 L99.3582582,13.4140625 L101.077008,13.4140625 L101.342633,14.7265625 C101.905136,13.8255163 102.720232,13.375 103.787946,13.375 C104.011905,13.375 104.194195,13.3854166 104.334821,13.40625 L104.303571,15.1171875 C104.095236,15.0859373 103.879093,15.0703125 103.655133,15.0703125 C102.899921,15.0703125 102.336125,15.2708313 101.963727,15.671875 C101.591329,16.0729187 101.405133,16.6302048 101.405133,17.34375 L101.405133,22 L99.3582582,22 Z M110.618303,22.1640625 C109.238088,22.1640625 108.16388,21.7669311 107.395647,20.9726562 C106.627414,20.1783814 106.243303,19.0807362 106.243303,17.6796875 C106.243303,16.3150973 106.605278,15.2291707 107.32924,14.421875 C108.053202,13.6145793 109.040172,13.2083334 110.290178,13.203125 C111.472475,13.203125 112.390435,13.572913 113.044084,14.3125 C113.697733,15.052087 114.024553,16.033848 114.024553,17.2578125 C114.024553,17.3463546 114.023251,17.4895823 114.020647,17.6875 C114.018042,17.8854177 114.01674,18.0312495 114.01674,18.125 L108.305803,18.125 C108.326636,18.9270873 108.546686,19.5481749 108.965959,19.9882812 C109.385232,20.4283876 109.962049,20.6484375 110.696428,20.6484375 C111.633933,20.6484375 112.534965,20.4036483 113.399553,19.9140625 L113.688615,21.3671875 C112.829236,21.8984402 111.805809,22.1640625 110.618303,22.1640625 Z M108.344865,16.8359375 L112.094865,16.8359375 C112.094865,16.1380173 111.936013,15.6015644 111.618303,15.2265625 C111.300593,14.8515606 110.860493,14.6640625 110.29799,14.6640625 C109.771946,14.6640625 109.32794,14.8463523 108.965959,15.2109375 C108.603978,15.5755227 108.396949,16.1171839 108.344865,16.8359375 Z" id="See-in-Store" fill="#FFFFFF"></path>
    </g>
</svg>