<?xml version="1.0" encoding="UTF-8"?>
<svg width="151px" height="35px" viewBox="0 0 151 35" version="1.1" xmlns="http://www.w3.org/2000/svg" xmlns:xlink="http://www.w3.org/1999/xlink">
    <!-- Generator: Sketch 52.2 (67145) - http://www.bohemiancoding.com/sketch -->
    <title>Available in store - oulined</title>
    <desc>Created with Sketch.</desc>
    <g id="Available-in-store---oulined" stroke="none" stroke-width="1" fill="none" fill-rule="evenodd">
        <path d="M147,34.8999819 L147,35 L146.906353,34.9180585 C146.612413,34.971881 146.30949,35 146,35 L5,35 C2.23857625,35 3.38176876e-16,32.7614237 0,30 L0,5 C-3.38176876e-16,2.23857625 2.23857625,5.07265313e-16 5,0 L146,0 C146.30949,-5.6852425e-17 146.612413,0.028118979 146.906353,0.081941531 L147,0 L147,0.100018116 L147,34.8999819 Z M151,30 L151,5 L151,30 Z M146.906353,0.081941531 L127,17.5 L146.906353,34.9180585 C146.937671,34.9123238 146.968888,34.9062973 147,34.8999819 L147,0.100018116 C146.968888,0.0937027343 146.937671,0.0876762323 146.906353,0.081941531 Z" id="Combined-Shape" fill="#1976D2"></path>
        <path d="M22.8896484,22.1367188 C21.6819601,22.1367188 20.5996142,21.8587267 19.6425781,21.3027344 L20.09375,19.8330078 C20.5221376,20.0699882 20.988116,20.2613925 21.4916992,20.4072266 C21.9952825,20.5530606 22.4863257,20.6259766 22.9648438,20.6259766 C23.5527373,20.6259766 23.9970688,20.499513 24.2978516,20.246582 C24.5986343,19.9936511 24.7490234,19.6302107 24.7490234,19.15625 C24.7490234,18.5273406 24.3297568,18.0921236 23.4912109,17.8505859 C23.4319658,17.8323567 23.2656264,17.7833663 22.9921875,17.7036133 C22.7187486,17.6238603 22.4624035,17.5463871 22.2231445,17.4711914 C21.9838855,17.3959957 21.8118495,17.3378908 21.7070312,17.296875 C20.3626235,16.8229143 19.6904297,15.9388086 19.6904297,14.6445312 C19.6904297,13.7376257 20.0128548,13.0380884 20.6577148,12.5458984 C21.3025748,12.0537085 22.1581978,11.8076172 23.2246094,11.8076172 C24.4322977,11.8076172 25.4736284,12.0559871 26.3486328,12.5527344 L25.7880859,13.90625 C24.8948523,13.5052063 24.0654335,13.3046875 23.2998047,13.3046875 C22.7483696,13.3046875 22.3325209,13.401529 22.0522461,13.5952148 C21.7719713,13.7889007 21.6227214,14.1113259 21.6044922,14.5625 C21.6044922,15.1184924 21.8802056,15.4807934 22.4316406,15.6494141 C22.5410162,15.6904299 22.8098937,15.7792962 23.2382812,15.9160156 C23.6666688,16.0527351 23.9446608,16.1416014 24.0722656,16.1826172 C24.9882858,16.4833999 25.64339,16.8570941 26.0375977,17.3037109 C26.4318054,17.7503278 26.6289062,18.3723918 26.6289062,19.1699219 C26.6289062,20.1224006 26.29167,20.8549779 25.6171875,21.3676758 C24.942705,21.8803737 24.0335344,22.1367188 22.8896484,22.1367188 Z M32.5097656,22.1435547 C31.3020773,22.1435547 30.3621453,21.7960647 29.6899414,21.1010742 C29.0177375,20.4060838 28.6816406,19.4456442 28.6816406,18.2197266 C28.6816406,17.0257102 28.9983692,16.0755244 29.6318359,15.3691406 C30.2653026,14.6627569 31.1289008,14.3072917 32.2226562,14.3027344 C33.2571666,14.3027344 34.0603813,14.6262988 34.6323242,15.2734375 C35.2042672,15.9205762 35.4902344,16.779617 35.4902344,17.8505859 C35.4902344,17.9280603 35.4890951,18.0533846 35.4868164,18.2265625 C35.4845377,18.3997404 35.4833984,18.5273433 35.4833984,18.609375 L30.4863281,18.609375 C30.5045574,19.3112014 30.697101,19.854653 31.0639648,20.2397461 C31.4308287,20.6248392 31.9355437,20.8173828 32.578125,20.8173828 C33.3984416,20.8173828 34.1868452,20.6031922 34.9433594,20.1748047 L35.1962891,21.4462891 C34.4443322,21.9111351 33.5488333,22.1435547 32.5097656,22.1435547 Z M30.5205078,17.4814453 L33.8017578,17.4814453 C33.8017578,16.8707652 33.6627618,16.4013688 33.3847656,16.0732422 C33.1067694,15.7451155 32.7216821,15.5810547 32.2294922,15.5810547 C31.7692034,15.5810547 31.3806982,15.7405583 31.0639648,16.0595703 C30.7472315,16.3785823 30.566081,16.8525359 30.5205078,17.4814453 Z M41.4189453,22.1435547 C40.211257,22.1435547 39.271325,21.7960647 38.5991211,21.1010742 C37.9269172,20.4060838 37.5908203,19.4456442 37.5908203,18.2197266 C37.5908203,17.0257102 37.9075489,16.0755244 38.5410156,15.3691406 C39.1744823,14.6627569 40.0380805,14.3072917 41.1318359,14.3027344 C42.1663463,14.3027344 42.9695609,14.6262988 43.5415039,15.2734375 C44.1134469,15.9205762 44.3994141,16.779617 44.3994141,17.8505859 C44.3994141,17.9280603 44.3982748,18.0533846 44.3959961,18.2265625 C44.3937174,18.3997404 44.3925781,18.5273433 44.3925781,18.609375 L39.3955078,18.609375 C39.4137371,19.3112014 39.6062807,19.854653 39.9731445,20.2397461 C40.3400083,20.6248392 40.8447233,20.8173828 41.4873047,20.8173828 C42.3076213,20.8173828 43.0960249,20.6031922 43.8525391,20.1748047 L44.1054688,21.4462891 C43.3535119,21.9111351 42.458013,22.1435547 41.4189453,22.1435547 Z M39.4296875,17.4814453 L42.7109375,17.4814453 C42.7109375,16.8707652 42.5719415,16.4013688 42.2939453,16.0732422 C42.0159491,15.7451155 41.6308618,15.5810547 41.1386719,15.5810547 C40.6783831,15.5810547 40.2898779,15.7405583 39.9731445,16.0595703 C39.6564112,16.3785823 39.4752606,16.8525359 39.4296875,17.4814453 Z M51.5947266,22 L51.5947266,14.4873047 L53.3857422,14.4873047 L53.3857422,22 L51.5947266,22 Z M51.5947266,13.3935547 L51.5947266,11.8623047 L53.3925781,11.8623047 L53.3925781,13.3935547 L51.5947266,13.3935547 Z M56.2519531,22 L56.2519531,14.4873047 L57.6943359,14.4873047 L57.8925781,15.4375 C58.658207,14.6809858 59.5081333,14.3027344 60.4423828,14.3027344 C61.3173872,14.3027344 61.9724913,14.5545222 62.4077148,15.0581055 C62.8429384,15.5616887 63.0605469,16.2919874 63.0605469,17.2490234 L63.0605469,22 L61.2626953,22 L61.2626953,17.4677734 C61.258138,16.8616506 61.1601572,16.4082046 60.96875,16.1074219 C60.7773428,15.8066391 60.4332707,15.65625 59.9365234,15.65625 C59.5491517,15.65625 59.1948258,15.7553701 58.8735352,15.9536133 C58.5522445,16.1518565 58.3186856,16.4013657 58.1728516,16.7021484 C58.0862626,17.057619 58.0429688,17.6044885 58.0429688,18.3427734 L58.0429688,22 L56.2519531,22 Z M73.5029297,22.1367188 C72.2952414,22.1367188 71.2128954,21.8587267 70.2558594,21.3027344 L70.7070312,19.8330078 C71.1354188,20.0699882 71.6013972,20.2613925 72.1049805,20.4072266 C72.6085637,20.5530606 73.099607,20.6259766 73.578125,20.6259766 C74.1660186,20.6259766 74.6103501,20.499513 74.9111328,20.246582 C75.2119156,19.9936511 75.3623047,19.6302107 75.3623047,19.15625 C75.3623047,18.5273406 74.943038,18.0921236 74.1044922,17.8505859 C74.0452471,17.8323567 73.8789076,17.7833663 73.6054688,17.7036133 C73.3320299,17.6238603 73.0756848,17.5463871 72.8364258,17.4711914 C72.5971668,17.3959957 72.4251307,17.3378908 72.3203125,17.296875 C70.9759047,16.8229143 70.3037109,15.9388086 70.3037109,14.6445312 C70.3037109,13.7376257 70.6261361,13.0380884 71.2709961,12.5458984 C71.9158561,12.0537085 72.771479,11.8076172 73.8378906,11.8076172 C75.045579,11.8076172 76.0869097,12.0559871 76.9619141,12.5527344 L76.4013672,13.90625 C75.5081336,13.5052063 74.6787148,13.3046875 73.9130859,13.3046875 C73.3616509,13.3046875 72.9458022,13.401529 72.6655273,13.5952148 C72.3852525,13.7889007 72.2360027,14.1113259 72.2177734,14.5625 C72.2177734,15.1184924 72.4934868,15.4807934 73.0449219,15.6494141 C73.1542974,15.6904299 73.4231749,15.7792962 73.8515625,15.9160156 C74.2799501,16.0527351 74.5579421,16.1416014 74.6855469,16.1826172 C75.6015671,16.4833999 76.2566712,16.8570941 76.6508789,17.3037109 C77.0450866,17.7503278 77.2421875,18.3723918 77.2421875,19.1699219 C77.2421875,20.1224006 76.9049513,20.8549779 76.2304688,21.3676758 C75.5559862,21.8803737 74.6468156,22.1367188 73.5029297,22.1367188 Z M82.6513672,22.1025391 C82.140948,22.1025391 81.7159848,22.0421556 81.3764648,21.9213867 C81.0369449,21.8006179 80.7714853,21.6103529 80.5800781,21.3505859 C80.3886709,21.090819 80.2530928,20.7843442 80.1733398,20.4311523 C80.0935868,20.0779605 80.0537109,19.6416042 80.0537109,19.1220703 L80.0537109,15.5742188 L78.8232422,15.5742188 L78.8916016,14.6035156 L80.1767578,14.4873047 L80.7509766,12.4501953 L81.8447266,12.4433594 L81.8447266,14.4873047 L83.7109375,14.4873047 L83.7109375,15.5742188 L81.8447266,15.5742188 L81.8447266,19.15625 C81.8447266,19.7259143 81.926757,20.1315092 82.0908203,20.3730469 C82.2548836,20.6145845 82.5579405,20.7353516 83,20.7353516 C83.2597669,20.7353516 83.5377589,20.7125653 83.8339844,20.6669922 L83.8818359,21.9521484 C83.8727213,21.9521484 83.816895,21.9624022 83.7143555,21.9829102 C83.6118159,22.0034181 83.5138351,22.0216471 83.4204102,22.0375977 C83.3269852,22.0535483 83.2073575,22.0683593 83.0615234,22.0820312 C82.9156894,22.0957032 82.778972,22.1025391 82.6513672,22.1025391 Z M89.3525391,20.7832031 C89.9586619,20.7832031 90.4143865,20.5621767 90.7197266,20.1201172 C91.0250666,19.6780577 91.1777344,19.0446005 91.1777344,18.2197266 C91.1777344,17.385738 91.0250666,16.7500022 90.7197266,16.3125 C90.4143865,15.8749978 89.9541046,15.65625 89.3388672,15.65625 C88.7327444,15.65625 88.2758804,15.8761371 87.9682617,16.315918 C87.660643,16.7556988 87.5068359,17.392574 87.5068359,18.2265625 C87.5068359,19.0468791 87.6617823,19.6780577 87.9716797,20.1201172 C88.2815771,20.5621767 88.7418589,20.7832031 89.3525391,20.7832031 Z M89.3046875,22.1435547 C88.1927028,22.1435547 87.3177115,21.7835322 86.6796875,21.0634766 C86.0416635,20.3434209 85.7226562,19.3955137 85.7226562,18.2197266 C85.7226562,17.0074809 86.0416635,16.0515985 86.6796875,15.3520508 C87.3177115,14.652503 88.2177676,14.3027344 89.3798828,14.3027344 C90.5009822,14.3027344 91.3793914,14.6593389 92.0151367,15.3725586 C92.6508821,16.0857783 92.96875,17.0348248 92.96875,18.2197266 C92.96875,19.4183003 92.6474642,20.371904 92.0048828,21.0805664 C91.3623015,21.7892288 90.4622454,22.1435547 89.3046875,22.1435547 Z M95.4384766,22 L95.4384766,14.4873047 L96.9423828,14.4873047 L97.1748047,15.6357422 C97.6669946,14.8473268 98.3802037,14.453125 99.3144531,14.453125 C99.5104176,14.453125 99.6699213,14.4622395 99.7929688,14.4804688 L99.765625,15.9775391 C99.5833324,15.9501952 99.3942067,15.9365234 99.1982422,15.9365234 C98.5374316,15.9365234 98.0441097,16.1119774 97.7182617,16.4628906 C97.3924137,16.8138038 97.2294922,17.3014292 97.2294922,17.9257812 L97.2294922,22 L95.4384766,22 Z M105.291016,22.1435547 C104.083327,22.1435547 103.143395,21.7960647 102.471191,21.1010742 C101.798988,20.4060838 101.462891,19.4456442 101.462891,18.2197266 C101.462891,17.0257102 101.779619,16.0755244 102.413086,15.3691406 C103.046553,14.6627569 103.910151,14.3072917 105.003906,14.3027344 C106.038417,14.3027344 106.841631,14.6262988 107.413574,15.2734375 C107.985517,15.9205762 108.271484,16.779617 108.271484,17.8505859 C108.271484,17.9280603 108.270345,18.0533846 108.268066,18.2265625 C108.265788,18.3997404 108.264648,18.5273433 108.264648,18.609375 L103.267578,18.609375 C103.285807,19.3112014 103.478351,19.854653 103.845215,20.2397461 C104.212079,20.6248392 104.716794,20.8173828 105.359375,20.8173828 C106.179692,20.8173828 106.968095,20.6031922 107.724609,20.1748047 L107.977539,21.4462891 C107.225582,21.9111351 106.330083,22.1435547 105.291016,22.1435547 Z M103.301758,17.4814453 L106.583008,17.4814453 C106.583008,16.8707652 106.444012,16.4013688 106.166016,16.0732422 C105.888019,15.7451155 105.502932,15.5810547 105.010742,15.5810547 C104.550453,15.5810547 104.161948,15.7405583 103.845215,16.0595703 C103.528481,16.3785823 103.347331,16.8525359 103.301758,17.4814453 Z" id="See-in-Store" fill="#FFFFFF"></path>
    </g>
</svg>